<?xml version="1.0" encoding="UTF-8" standalone="no"?>
<svg
   xmlns:dc="http://purl.org/dc/elements/1.1/"
   xmlns:cc="http://creativecommons.org/ns#"
   xmlns:rdf="http://www.w3.org/1999/02/22-rdf-syntax-ns#"
   xmlns:svg="http://www.w3.org/2000/svg"
   xmlns="http://www.w3.org/2000/svg"
   id="svg2"
   height="519.25739"
   width="519.25763"
   version="1.1">
  <defs
     id="defs4" />
  <metadata
     id="metadata7">
    <rdf:RDF>
      <cc:Work
         rdf:about="">
        <dc:format>image/svg+xml</dc:format>
        <dc:type
           rdf:resource="http://purl.org/dc/dcmitype/StillImage" />
        <dc:title></dc:title>
      </cc:Work>
    </rdf:RDF>
  </metadata>
  <g
     transform="translate(-116.79977,-229.16205)"
     id="g3906">
    <path
       style="fill:#b3d1ff;fill-opacity:1;stroke:#000000;stroke-width:3.54330707;stroke-linejoin:miter;stroke-miterlimit:4;stroke-dasharray:none;stroke-dashoffset:0;stroke-opacity:1"
       id="path3868"
       transform="matrix(0.99725637,0,0,0.99725637,51.607926,33.395731)"
       d="m 584.28574,456.64789 a 258.57144,258.57144 0 1 1 -517.142887,0 258.57144,258.57144 0 1 1 517.142887,0 z" />
    <path
       style="fill:#000000;fill-opacity:1;stroke:#000000;stroke-width:1px;stroke-linecap:butt;stroke-linejoin:miter;stroke-opacity:1"
       id="path3820"
       d="m 541.44176,295.75793 c 0,0 0.39548,4.93639 1.51523,7.07106 3.65152,6.96116 18.29488,9.60662 16.16244,17.1726 -0.52074,1.8476 -3.71344,2.05411 -5.55583,1.51523 -9.15225,-2.67694 -10.47695,-17.34515 -19.1929,-21.21321 -1.53886,-0.68293 -3.5111,0.6811 -5.05077,0 -2.28888,-1.01253 -2.56337,-5.27828 -5.05076,-5.55584 -2.0424,-0.22791 -4.93172,1.48391 -5.05076,3.53554 -0.23486,4.04781 5.06996,8.5991 9.09137,8.08122 1.20411,-0.15507 0.85124,-2.70303 2.02031,-3.03046 2.68356,-0.75161 7.57614,3.53553 7.57614,3.53553 0,0 -5.50853,2.93722 -5.55584,5.55584 -0.1786,9.88579 16.15231,12.69873 20.20305,21.71828 2.91003,6.4796 5.53735,15.04199 2.02031,21.21321 -4.69868,8.2446 -25.75889,12.12183 -25.75889,12.12183 0,0 3.53553,4.43583 3.53553,7.07106 0,3.01169 -4.04061,8.08122 -4.04061,8.08122 0,0 -6.79619,-4.24225 -6.56599,-7.57614 0.12328,-1.78543 4.07328,-1.74615 4.04061,-3.53553 -0.0634,-3.47023 -4.63825,-7.00466 -8.08122,-6.56599 -3.94154,0.50219 -7.05869,5.62305 -7.07107,9.59644 -0.0285,9.15966 12.20816,13.96116 16.16244,22.22336 2.78568,5.82051 5.05077,18.68782 5.05077,18.68782 l -18.18275,16.16244 c 0,0 -0.63532,-7.19048 -2.52538,-10.10152 -5.35533,-8.24818 -23.23351,-18.18275 -23.23351,-18.18275 0,0 -2.5897,12.19649 -1.51523,18.18275 1.05116,5.85641 4.01119,11.39866 7.57614,16.16244 3.5016,4.67912 10.25224,6.53124 13.13199,11.61675 3.62843,6.40764 4.04061,21.71828 4.04061,21.71828 0,0 -10.03256,-3.43426 -13.63706,-7.07107 -9.16943,-9.25163 -15.35354,-22.03349 -17.67767,-34.85026 -1.08807,-6.00036 2.66275,-12.11846 2.0203,-18.18274 -1.12177,-10.58869 -10.10152,-30.30458 -10.10152,-30.30458 l -7.07107,9.09137 -8.08122,-1.01015 0,-13.13198 -19.1929,-22.22336 -14.14213,3.03046 -44.44672,29.29442 c 0,0 4.82673,8.62011 4.04061,13.13199 -2.02288,11.6102 -14.78509,28.38265 -21.2132,28.28427 -2.56015,-0.0392 -10.71581,-19.69688 -14.14213,-30.30458 -4.42497,-13.69949 -8.08122,-42.42641 -8.08122,-42.42641 0,0 -7.93233,6.31925 -12.12184,5.05077 -8.13372,-2.46269 -14.14213,-21.21321 -14.14213,-21.21321 l -6.06092,1.01016 -37.37564,0 1.01015,-7.07107 -13.13198,5.05076 -10.10153,-6.06091 -3.03045,-9.09138 -6.06092,10.10153 8.08122,6.06091 -3.03046,9.09138 8.08122,1.01015 12.12183,-12.12183 2.02031,8.08122 11.11168,6.06091 -16.16244,22.22336 -63.63961,34.34519 1.01015,-26.26397 -5.05076,-13.13198 3.03045,-6.06092 -5.05076,-21.2132 -3.03046,26.26396 -4.04061,10.10153 2.02031,18.18275 9.09137,14.14213 4.04061,10.10153 29.29443,-9.09138 c -29.87842,82.42951 -56.91612,64.64357 -51.26525,97.47973 l 9.34391,54.2957 c 0,0 -13.02544,11.62472 -13.13198,19.44543 -0.0897,6.58478 10.97851,14.70179 9.34391,22.72844 -0.38123,1.872 -3.80212,2.1361 -4.07869,4.02641 -0.38667,2.6429 3.17617,4.44275 3.8508,7.02719 2.04606,7.83829 0.2279,24.30173 0.2279,24.30173 l -8.26363,6.30803 c -34.08377,-44.1674 -54.11329,-98.66009 -54.11329,-157.83092 0,-141.70452 114.87421,-256.57874 256.57873,-256.57874 63.57071,0 121.74168,23.11901 167.093,61.63987 z" />
    <path
       style="fill:#000000;fill-opacity:1;stroke:#000000;stroke-width:1px;stroke-linecap:butt;stroke-linejoin:miter;stroke-opacity:1"
       id="path3822"
       d="m 381.33259,417.98638 c -4.83571,0.33719 -5.50024,8.8105 -5.05077,13.63706 0.3641,3.90985 2.22241,9.27368 6.06092,10.10153 2.60216,0.56121 5.42961,-2.13845 6.56599,-4.54569 0.86544,-1.8333 0.0718,-4.11741 -0.50508,-6.06091 -1.41468,-4.76605 -2.11153,-13.47782 -7.07106,-13.13199 z" />
    <path
       style="fill:#000000;fill-opacity:1;stroke:#000000;stroke-width:1px;stroke-linecap:butt;stroke-linejoin:miter;stroke-opacity:1"
       id="path3824"
       d="m 569.22096,649.81639 2.52538,-8.58629 -5.05076,-5.55584 -42.93148,22.72843 -4.54569,-3.53553 c 0,0 6.0529,-7.96079 7.57614,-12.62691 2.30833,-7.0711 0.39201,-14.96544 2.02031,-22.22336 1.609,-7.17189 2.57972,-15.31732 7.57614,-20.70812 6.91423,-7.45999 19.66018,-6.49996 27.7792,-12.62691 10.5825,-7.98599 25.75889,-30.30458 25.75889,-30.30458 l 4.54568,5.05077 9.59645,-13.63706 -4.04061,-5.05077 13.63706,2.52538 -7.07107,13.63706 5.55584,11.11168 9.59645,-29.7995 -0.56841,24.88268 c -8.90253,28.65851 -22.26041,54.14774 -40.05555,76.94039 z" />
    <path
       style="fill:#000000;fill-opacity:1;stroke:#000000;stroke-width:1px;stroke-linecap:butt;stroke-linejoin:miter;stroke-opacity:1"
       id="path3826"
       d="m 621.74889,533.14377 -2.0203,-21.71828 -7.57615,-9.09137 -4.04061,-15.65736 11.11168,4.54568 13.063,20.04467 c -0.29505,3.17959 -0.5413,5.51156 -0.88255,8.53857 z" />
    <path
       style="fill:#000000;fill-opacity:1;stroke:#000000;stroke-width:1px;stroke-linecap:butt;stroke-linejoin:miter;stroke-opacity:1"
       id="path3828"
       d="m 558.10928,356.87215 c -2.14985,1.02327 -1.76307,4.8123 -1.01015,7.07107 0.75292,2.25877 2.80402,5.83888 5.05076,5.05077 2.87723,-1.00928 2.36341,-6.35903 1.01015,-9.09138 -0.87139,-1.75942 -3.27795,-3.87427 -5.05076,-3.03046 z" />
    <path
       style="fill:#000000;fill-opacity:1;stroke:#000000;stroke-width:1px;stroke-linecap:butt;stroke-linejoin:miter;stroke-opacity:1"
       id="path3830"
       d="m 570.23111,330.10311 c -0.97868,2.51531 0.50508,8.08122 0.50508,8.08122 0,0 -7.40537,-5.09348 -8.08122,-9.09137 -0.73228,-4.3317 5.03149,-12.18124 5.03149,-12.18124 3.05708,2.77173 5.08164,5.13561 7.58194,8.34347 0,0 -4.19227,2.67613 -5.03729,4.84792 z" />
    <path
       style="fill:#000000;fill-opacity:1;stroke:#000000;stroke-width:1px;stroke-linecap:butt;stroke-linejoin:miter;stroke-opacity:1"
       id="path3832"
       d="m 567.20065,385.15643 c 0,0 6.54741,6.07144 8.08122,10.10152 1.13939,2.99375 -1.08012,6.81294 0.50508,9.59645 1.8024,3.16491 6.77115,3.25345 9.09137,6.06092 4.42211,5.35078 8.08122,19.19289 8.08122,19.19289 l -9.59644,2.52539 c 0,0 -5.80528,-12.0842 -8.5863,-18.18275 -1.90791,-4.1839 -3.90102,-8.33661 -5.55584,-12.62691 -0.95797,-2.48364 -2.17205,-4.93771 -2.52538,-7.57614 -0.40286,-3.00827 0.50507,-9.09137 0.50507,-9.09137 z" />
    <path
       style="fill:#000000;fill-opacity:1;stroke:#000000;stroke-width:1px;stroke-linecap:butt;stroke-linejoin:miter;stroke-opacity:1"
       id="path3834"
       d="m 592.45447,434.6539 c 0,0 -7.65836,1.99942 -9.59645,5.05076 -1.9879,3.12977 -0.50508,11.11168 -0.50508,11.11168 l 7.57615,-7.07107 3.03045,9.09138 c 0,0 3.67426,-2.92608 4.04061,-5.05077 0.78709,-4.5648 -4.54568,-13.13198 -4.54568,-13.13198 z" />
    <path
       style="fill:#000000;fill-opacity:1;stroke:#000000;stroke-width:1px;stroke-linecap:butt;stroke-linejoin:miter;stroke-opacity:1"
       id="path3836"
       d="m 565.18035,442.73512 c 0,0 8.19236,6.07489 8.5863,10.6066 0.30023,3.4537 -4.62458,5.65095 -5.05077,9.09138 -0.64262,5.18761 4.42356,9.93907 4.04061,15.15228 -0.68507,9.32598 -11.11167,25.75889 -11.11167,25.75889 0,0 -15.35016,-4.51146 -21.21321,-9.59645 -3.31664,-2.8765 -5.93163,-6.87185 -7.07107,-11.11167 -1.0496,-3.90554 -1.79098,-8.79272 0.50508,-12.12183 3.63981,-5.27746 12.73724,-3.49058 17.67767,-7.57615 6.26132,-5.1779 13.63706,-20.20305 13.63706,-20.20305 z" />
    <path
       style="fill:#000000;fill-opacity:1;stroke:#000000;stroke-width:1px;stroke-linecap:butt;stroke-linejoin:miter;stroke-opacity:1"
       id="path3838"
       d="m 592.95954,477.58538 -14.64721,0 -1.01015,2.52539 14.14214,3.03045 z" />
    <path
       style="fill:#000000;fill-opacity:1;stroke:#000000;stroke-width:1px;stroke-linecap:butt;stroke-linejoin:miter;stroke-opacity:1"
       id="path3840"
       d="m 586.89863,487.18183 c 0,0 -8.24052,-1.35388 -11.11168,1.01016 -3.24928,2.67537 -3.43674,7.91402 -3.53553,12.12183 -0.11788,5.02124 3.53553,14.64721 3.53553,14.64721 l 4.04061,-17.67767 4.54569,15.65736 c 0,0 3.23007,-8.05507 2.52538,-12.12183 -0.60638,-3.49938 -5.55584,-9.09137 -5.55584,-9.09137 z" />
    <path
       style="fill:#000000;fill-opacity:1;stroke:#000000;stroke-width:1px;stroke-linecap:butt;stroke-linejoin:miter;stroke-opacity:1"
       id="path3842"
       d="m 594.97985,525.06255 c 0,0 -24.68495,5.33048 -36.36549,2.02031 -4.53833,-1.28613 -7.49159,-5.79352 -11.61676,-8.08122 -2.24259,-1.24368 -4.52213,-2.74953 -7.07106,-3.03046 -2.72419,-0.30025 -8.08122,1.51523 -8.08122,1.51523 0,0 -0.77489,-3.19415 -2.02031,-4.04061 -3.21466,-2.18487 -11.61675,-1.01015 -11.61675,-1.01015 l -1.51523,6.06091 c 0,0 30.13264,11.42765 45.96194,12.12183 10.92246,0.479 32.32488,-5.55584 32.32488,-5.55584 z" />
    <path
       style="fill:#000000;fill-opacity:1;stroke:#000000;stroke-width:1px;stroke-linecap:butt;stroke-linejoin:miter;stroke-opacity:1"
       id="path3844"
       d="m 517.1981,510.92042 c 0,0 3.4745,-9.11256 2.52538,-13.63706 -2.21458,-10.55701 -18.18274,-26.76904 -18.18274,-26.76904 l -21.71828,-14.14214 -2.52538,-8.5863 -12.12183,-1.01015 18.68782,21.71828 c 0,0 6.97848,18.65217 13.13198,26.26397 5.42183,6.70673 20.20305,16.16244 20.20305,16.16244 z" />
    <path
       style="fill:#000000;fill-opacity:1;stroke:#000000;stroke-width:1px;stroke-linecap:butt;stroke-linejoin:miter;stroke-opacity:1"
       id="path3846"
       d="m 216.78571,542.71932 c -6.70384,-0.48982 -2.78945,14.15555 -7.85714,18.57143 -2.41668,2.10585 -7.43124,-0.11455 -9.28571,2.5 -1.86467,2.62894 0.0808,6.48264 0.71428,9.64286 0.66596,3.32206 2.55807,6.31886 3.21429,9.64286 1.01688,5.15084 -1.10167,10.93486 1.07143,15.71428 2.43895,5.36412 6.63612,11.91936 12.5,12.5 1.70857,0.16918 3.47556,-1.34337 4.28571,-2.85714 7.52726,-14.06481 2.02342,-32.03361 0,-47.85714 -0.78011,-6.10061 1.49107,-17.40897 -4.64286,-17.85715 z" />
  </g>
</svg>
